<?xml version="1.0" encoding="UTF-8"?>
<svg width="121px" height="120px" viewBox="0 0 121 120" version="1.1" xmlns="http://www.w3.org/2000/svg" xmlns:xlink="http://www.w3.org/1999/xlink">
    <title>仪表盘</title>
    <defs>
        <path d="M113,60 C113,89.2711023 89.2717011,113 59.9994926,113 C30.7293137,113 7,89.2711023 7,60 C7,30.7279047 30.7293137,7 59.9994926,7 C89.2717011,7 113,30.7279047 113,60 Z" id="path-1"></path>
        <filter x="-3.8%" y="-3.8%" width="107.5%" height="107.5%" filterUnits="objectBoundingBox" id="filter-2">
            <feGaussianBlur stdDeviation="2" in="SourceAlpha" result="shadowBlurInner1"></feGaussianBlur>
            <feOffset dx="0" dy="4" in="shadowBlurInner1" result="shadowOffsetInner1"></feOffset>
            <feComposite in="shadowOffsetInner1" in2="SourceAlpha" operator="arithmetic" k2="-1" k3="1" result="shadowInnerInner1"></feComposite>
            <feColorMatrix values="0 0 0 0 0   0 0 0 0 0   0 0 0 0 0  0 0 0 0.616257888 0" type="matrix" in="shadowInnerInner1"></feColorMatrix>
        </filter>
    </defs>
    <g id="页面-1" stroke="none" stroke-width="1" fill="none" fill-rule="evenodd">
        <g id="画板备份-9" transform="translate(-1172.000000, -715.000000)">
            <g id="仪表盘" transform="translate(1172.630500, 715.000000)">
                <path d="M120,60.0004998 C120,93.1374166 93.136417,120 60,120 C26.8625615,120 0,93.1374166 0,60.0004998 C0,26.863583 26.8625615,0 60,0 C93.136417,0 120,26.863583 120,60.0004998" id="Fill-1" fill="#222222"></path>
                <g id="Stroke-3">
                    <use fill="#232323" fill-rule="evenodd" xlink:href="#path-1"></use>
                    <use fill="black" fill-opacity="1" filter="url(#filter-2)" xlink:href="#path-1"></use>
                </g>
                <g id="编组" transform="translate(6.915500, 6.915500)">
                    <polygon id="Fill-5" fill="#FEFEFE" points="52.7074 4.3396 53.6984 4.3396 53.6984 0.0316 52.7074 0.0316"></polygon>
                    <polygon id="Fill-7" fill="#FEFEFE" points="46.0327 9.4214 45.0557 9.5934 43.5277 0.9274 44.5047 0.7554"></polygon>
                    <polygon id="Fill-8" fill="#FEFEFE" points="38.5854 11.3335 37.6534 11.6725 34.6444 3.4035 35.5754 3.0635"></polygon>
                    <polygon id="Fill-9" fill="#FEFEFE" points="31.5835 14.5103 30.7255 15.0063 26.3245 7.3853 27.1845 6.8893"></polygon>
                    <polygon id="Fill-10" fill="#FEFEFE" points="25.2397 18.854 24.4797 19.492 18.8227 12.75 19.5837 12.113"></polygon>
                    <polygon id="Fill-11" fill="#FEFEFE" points="19.7466 24.2339 19.1086 24.9939 12.3676 19.3369 13.0056 18.5769"></polygon>
                    <polygon id="Fill-12" fill="#FEFEFE" points="15.27 30.4859 14.775 31.3439 7.154 26.9449 7.65 26.0859"></polygon>
                    <polygon id="Fill-13" fill="#FEFEFE" points="11.9487 37.4194 11.6087 38.3514 3.3407 35.3414 3.6787 34.4094"></polygon>
                    <polygon id="Fill-14" fill="#FEFEFE" points="9.8804 44.8247 9.7084 45.8017 1.0424 44.2737 1.2144 43.2967"></polygon>
                    <polygon id="Fill-15" fill="#FEFEFE" points="0.3304 53.4696 4.9214 53.4696 4.9214 52.4776 0.3304 52.4776"></polygon>
                    <polygon id="Fill-16" fill="#FEFEFE" points="9.7202 60.1431 9.8932 61.1201 1.2262 62.6481 1.0542 61.6711"></polygon>
                    <polygon id="Fill-17" fill="#FEFEFE" points="11.6333 67.5903 11.9723 68.5223 3.7023 71.5313 3.3633 70.6003"></polygon>
                    <polygon id="Fill-18" fill="#FEFEFE" points="14.8091 74.5923 15.3051 75.4513 7.6841 79.8513 7.1881 78.9923"></polygon>
                    <polygon id="Fill-19" fill="#FEFEFE" points="19.1528 80.936 19.7908 81.696 13.0488 87.353 12.4118 86.593"></polygon>
                    <polygon id="Fill-20" fill="#FEFEFE" points="24.5327 86.4302 25.2927 87.0672 19.6367 93.8082 18.8767 93.1702"></polygon>
                    <polygon id="Fill-21" fill="#FEFEFE" points="30.7847 90.9058 31.6427 91.4008 27.2437 99.0218 26.3847 98.5268"></polygon>
                    <polygon id="Fill-22" fill="#FEFEFE" points="37.7183 94.2271 38.6513 94.5671 35.6413 102.8361 34.7083 102.4971"></polygon>
                    <polygon id="Fill-23" fill="#FEFEFE" points="45.1245 96.2954 46.1015 96.4674 44.5725 105.1334 43.5965 104.9614"></polygon>
                    <polygon id="Fill-24" fill="#FEFEFE" points="52.7754 105.8456 53.7674 105.8456 53.7674 101.9606 52.7754 101.9606"></polygon>
                    <polygon id="Fill-25" fill="#FEFEFE" points="60.4419 96.4556 61.4199 96.2826 62.9469 104.9496 61.9699 105.1216"></polygon>
                    <polygon id="Fill-26" fill="#FEFEFE" points="67.8892 94.5435 68.8222 94.2035 71.8312 102.4735 70.8992 102.8125"></polygon>
                    <polygon id="Fill-27" fill="#FEFEFE" points="74.8911 91.3667 75.7501 90.8707 80.1511 98.4917 79.2911 98.9877"></polygon>
                    <polygon id="Fill-28" fill="#FEFEFE" points="81.2359 87.023 81.9959 86.385 87.6519 93.127 86.8919 93.764"></polygon>
                    <polygon id="Fill-29" fill="#FEFEFE" points="86.729 81.6431 87.367 80.8831 94.108 86.5391 93.47 87.2991"></polygon>
                    <polygon id="Fill-30" fill="#FEFEFE" points="91.2046 75.3911 91.7006 74.5331 99.3216 78.9321 98.8256 79.7911"></polygon>
                    <polygon id="Fill-31" fill="#FEFEFE" points="94.5269 68.4575 94.8659 67.5245 103.1349 70.5345 102.7969 71.4675"></polygon>
                    <polygon id="Fill-32" fill="#FEFEFE" points="96.5943 61.0513 96.7663 60.0743 105.4333 61.6033 105.2603 62.5793"></polygon>
                    <polygon id="Fill-33" fill="#FEFEFE" points="97.3444 53.3996 106.1444 53.3996 106.1444 52.4076 97.3444 52.4076"></polygon>
                    <polygon id="Fill-34" fill="#FEFEFE" points="96.7544 45.7339 96.5824 44.7559 105.2484 43.2289 105.4204 44.2059"></polygon>
                    <polygon id="Fill-35" fill="#FEFEFE" points="94.8423 38.2866 94.5033 37.3536 102.7723 34.3446 103.1123 35.2766"></polygon>
                    <polygon id="Fill-36" fill="#FEFEFE" points="91.6655 31.2847 91.1705 30.4257 98.7915 26.0257 99.2865 26.8847"></polygon>
                    <polygon id="Fill-37" fill="#FEFEFE" points="87.3218 24.94 86.6838 24.18 93.4258 18.524 94.0628 19.284"></polygon>
                    <polygon id="Fill-38" fill="#FEFEFE" points="81.9419 19.4468 81.1819 18.8088 86.8389 12.0678 87.5989 12.7058"></polygon>
                    <polygon id="Fill-39" fill="#FEFEFE" points="75.6909 14.9712 74.8319 14.4752 79.2319 6.8542 80.0899 7.3502"></polygon>
                    <polygon id="Fill-40" fill="#FEFEFE" points="68.7564 11.6489 67.8244 11.3099 70.8344 3.0409 71.7664 3.3799"></polygon>
                    <polygon id="Fill-41" fill="#FEFEFE" points="61.3511 9.5816 60.3741 9.4096 61.9021 0.7426 62.8791 0.9156"></polygon>
                    <polygon id="Fill-42" fill="#FEFEFE" points="48.3424 6.6756 49.3344 6.6756 49.3344 0.0176 48.3424 0.0176"></polygon>
                    <polygon id="Fill-43" fill="#FEFEFE" points="41.3325 8.0318 40.3555 8.2048 39.1995 1.6458 40.1765 1.4738"></polygon>
                    <polygon id="Fill-44" fill="#FEFEFE" points="33.688 10.7573 32.755 11.0963 30.478 4.8393 31.411 4.4993"></polygon>
                    <polygon id="Fill-45" fill="#FEFEFE" points="26.6323 14.7681 25.7733 15.2641 22.4443 9.4971 23.3033 9.0011"></polygon>
                    <polygon id="Fill-46" fill="#FEFEFE" points="18.7056 17.9478 17.9456 18.5858 15.3406 15.4798 16.1006 14.8428"></polygon>
                    <polygon id="Fill-47" fill="#FEFEFE" points="15.1226 26.1265 14.4846 26.8865 9.3846 22.6055 10.0206 21.8465"></polygon>
                    <polygon id="Fill-48" fill="#FEFEFE" points="11.0181 33.1275 10.5221 33.9865 4.7551 30.6565 5.2511 29.7985"></polygon>
                    <polygon id="Fill-49" fill="#FEFEFE" points="8.1919 40.7359 7.8519 41.6679 1.5949 39.3899 1.9339 38.4589"></polygon>
                    <polygon id="Fill-50" fill="#FEFEFE" points="6.729 48.7193 6.557 49.6963 0 48.5393 0.171 47.5623"></polygon>
                    <polygon id="Fill-51" fill="#FEFEFE" points="0.0164 57.8266 6.6754 57.8266 6.6754 56.8346 0.0164 56.8346"></polygon>
                    <polygon id="Fill-52" fill="#FEFEFE" points="8.0317 64.8364 8.2037 65.8134 1.6457 66.9694 1.4737 65.9924"></polygon>
                    <polygon id="Fill-53" fill="#FEFEFE" points="10.7563 72.481 11.0963 73.414 4.8383 75.691 4.4993 74.758"></polygon>
                    <polygon id="Fill-54" fill="#FEFEFE" points="14.7681 79.5366 15.2641 80.3956 9.4971 83.7246 9.0011 82.8656"></polygon>
                    <polygon id="Fill-55" fill="#FEFEFE" points="18.5327 86.9722 19.1697 87.7322 15.4797 90.8282 14.8427 90.0692"></polygon>
                    <polygon id="Fill-56" fill="#FEFEFE" points="26.1255 91.0464 26.8855 91.6844 22.6045 96.7844 21.8455 96.1474"></polygon>
                    <polygon id="Fill-57" fill="#FEFEFE" points="33.1274 95.1509 33.9854 95.6469 30.6564 101.4139 29.7974 100.9179"></polygon>
                    <polygon id="Fill-58" fill="#FEFEFE" points="40.7349 97.9771 41.6679 98.3171 39.3899 104.5741 38.4579 104.2351"></polygon>
                    <polygon id="Fill-59" fill="#FEFEFE" points="48.7183 99.44 49.6953 99.612 48.5383 106.169 47.5623 105.998"></polygon>
                    <polygon id="Fill-60" fill="#FEFEFE" points="56.8344 106.1526 57.8254 106.1526 57.8254 99.4936 56.8344 99.4936"></polygon>
                    <polygon id="Fill-61" fill="#FEFEFE" points="64.8364 98.1372 65.8134 97.9652 66.9694 104.5232 65.9924 104.6952"></polygon>
                    <polygon id="Fill-62" fill="#FEFEFE" points="72.481 95.4126 73.413 95.0726 75.69 101.3306 74.758 101.6696"></polygon>
                    <polygon id="Fill-63" fill="#FEFEFE" points="79.5366 91.4009 80.3946 90.9049 83.7246 96.6719 82.8656 97.1679"></polygon>
                    <polygon id="Fill-64" fill="#FEFEFE" points="86.7925 87.2485 87.5525 86.6105 90.9155 90.6185 90.1555 91.2565"></polygon>
                    <polygon id="Fill-65" fill="#FEFEFE" points="91.0464 80.0435 91.6834 79.2835 96.7844 83.5645 96.1474 84.3235"></polygon>
                    <polygon id="Fill-66" fill="#FEFEFE" points="95.1509 73.0415 95.6459 72.1835 101.4139 75.5125 100.9179 76.3715"></polygon>
                    <polygon id="Fill-67" fill="#FEFEFE" points="97.9771 65.4341 98.3161 64.5011 104.5741 66.7791 104.2341 67.7111"></polygon>
                    <polygon id="Fill-68" fill="#FEFEFE" points="99.439 57.4507 99.612 56.4737 106.169 57.6307 105.997 58.6067"></polygon>
                    <polygon id="Fill-69" fill="#FEFEFE" points="99.4934 49.3346 106.1514 49.3346 106.1514 48.3436 99.4934 48.3436"></polygon>
                    <polygon id="Fill-70" fill="#FEFEFE" points="98.1372 41.3325 97.9642 40.3555 104.5232 39.1995 104.6952 40.1765"></polygon>
                    <polygon id="Fill-71" fill="#FEFEFE" points="95.4116 33.688 95.0726 32.756 101.3296 30.479 101.6696 31.411"></polygon>
                    <polygon id="Fill-72" fill="#FEFEFE" points="91.4009 26.6323 90.9049 25.7743 96.6719 22.4443 97.1679 23.3033"></polygon>
                    <polygon id="Fill-73" fill="#FEFEFE" points="88.313 18.6284 87.676 17.8684 90.689 15.3414 91.327 16.1014"></polygon>
                    <polygon id="Fill-74" fill="#FEFEFE" points="80.0425 15.1226 79.2825 14.4856 83.5635 9.3846 84.3225 10.0216"></polygon>
                    <polygon id="Fill-75" fill="#FEFEFE" points="73.0415 11.0181 72.1825 10.5221 75.5115 4.7551 76.3705 5.2511"></polygon>
                    <polygon id="Fill-76" fill="#FEFEFE" points="65.4331 8.1919 64.5011 7.8529 66.7791 1.5949 67.7101 1.9349"></polygon>
                    <polygon id="Fill-77" fill="#FEFEFE" points="57.4497 6.73 56.4727 6.557 57.6297 0 58.6057 0.171"></polygon>
                    <polygon id="Fill-78" fill="#CC2B1C" points="53.1987 5.8491 50.6987 2.0481 55.6987 2.0481"></polygon>
                    <polygon id="Fill-79" fill="#FEFEFE" points="19.7065 19.7866 15.2515 18.8666 18.7875 15.3316"></polygon>
                    <polygon id="Fill-80" fill="#CC2B1C" points="6.0796 52.9898 2.2786 55.4898 2.2786 50.4898"></polygon>
                    <polygon id="Fill-81" fill="#FEFEFE" points="20.0063 86.3237 19.0863 90.7777 15.5513 87.2427"></polygon>
                    <polygon id="Fill-82" fill="#CC2B1C" points="53.2739 99.9614 55.7739 103.7614 50.7739 103.7614"></polygon>
                    <polygon id="Fill-83" fill="#FEFEFE" points="86.3989 86.2241 90.8539 87.1431 87.3179 90.6781"></polygon>
                    <polygon id="Fill-84" fill="#CC2B1C" points="100.1919 52.9526 103.9919 50.4526 103.9919 55.4526"></polygon>
                    <polygon id="Fill-85" fill="#FEFEFE" points="86.3931 19.6235 87.3121 15.1685 90.8471 18.7035"></polygon>
                    <path d="M50.1919,10.1235 L51.5009,10.1235 L54.1849,14.8755 L55.0329,16.5925 L55.0879,16.5925 C55.0209,15.7565 54.9219,14.7765 54.9219,13.8965 L54.9219,10.1235 L56.1319,10.1235 L56.1319,18.2205 L54.8239,18.2205 L52.1389,13.4455 L51.2919,11.7515 L51.2369,11.7515 C51.3029,12.5875 51.4019,13.5225 51.4019,14.4025 L51.4019,18.2205 L50.1919,18.2205 L50.1919,10.1235 Z" id="Fill-86" fill="#FEFEFE"></path>
                    <path d="M30.5952,25.0112 L30.7202,23.9972 C31.3722,24.1792 32.0992,24.2302 32.8242,23.8112 C33.6152,23.3552 33.9062,22.6032 33.4882,21.8782 C33.0362,21.0972 32.2492,20.8782 30.6672,21.7922 L30.2002,20.9822 C31.5812,20.1852 31.7362,19.3962 31.3292,18.6912 C30.9722,18.0722 30.3372,17.9172 29.6632,18.2932 C29.1262,18.6162 28.8242,19.1482 28.6482,19.7692 L27.6812,19.4132 C27.9472,18.5992 28.3922,17.8722 29.2002,17.4052 C30.4582,16.6792 31.7202,16.8152 32.3902,17.9772 C32.8592,18.7862 32.7162,19.6182 32.1322,20.3242 L32.1592,20.3722 C33.0852,20.1042 34.0752,20.3452 34.6202,21.2882 C35.3532,22.5562 34.7222,23.9092 33.4372,24.6522 C32.3312,25.2902 31.3632,25.2652 30.5952,25.0112" id="Fill-87" fill="#FEFEFE"></path>
                    <path d="M36.0249,21.8765 L36.1499,20.8625 C36.8019,21.0445 37.5289,21.0955 38.2539,20.6765 C39.0449,20.2205 39.3359,19.4685 38.9179,18.7435 C38.4659,17.9625 37.6789,17.7435 36.0969,18.6575 L35.6299,17.8475 C37.0109,17.0505 37.1659,16.2615 36.7589,15.5565 C36.4019,14.9375 35.7669,14.7825 35.0929,15.1585 C34.5559,15.4815 34.2539,16.0135 34.0779,16.6345 L33.1109,16.2785 C33.3769,15.4645 33.8219,14.7375 34.6299,14.2705 C35.8879,13.5445 37.1499,13.6805 37.8199,14.8425 C38.2889,15.6515 38.1459,16.4835 37.5619,17.1895 L37.5889,17.2375 C38.5149,16.9695 39.5049,17.2105 40.0499,18.1535 C40.7809,19.4215 40.1519,20.7745 38.8669,21.5175 C37.7609,22.1555 36.7929,22.1305 36.0249,21.8765" id="Fill-88" fill="#FEFEFE"></path>
                    <path d="M18.9419,40.687 L18.5439,39.746 C19.1999,39.578 19.8539,39.257 20.2729,38.533 C20.7289,37.742 20.6049,36.947 19.8809,36.529 C19.0989,36.078 18.3079,36.281 17.3949,37.863 L16.5869,37.396 C17.3829,36.015 17.1239,35.254 16.4179,34.847 C15.7989,34.49 15.1709,34.673 14.7769,35.335 C14.4729,35.884 14.4759,36.496 14.6349,37.121 L13.6199,37.296 C13.4429,36.458 13.4649,35.606 13.9319,34.796 C14.6589,33.539 15.8179,33.027 16.9799,33.698 C17.7899,34.166 18.0829,34.957 17.9289,35.86 L17.9769,35.888 C18.6449,35.193 19.6239,34.906 20.5669,35.451 C21.8349,36.183 21.9649,37.669 21.2229,38.956 C20.5849,40.061 19.7349,40.523 18.9419,40.687" id="Fill-89" fill="#FEFEFE"></path>
                    <path d="M21.4966,30.0318 C19.4866,28.8708 18.4616,28.9528 18.0496,29.6678 C17.6376,30.3828 18.0786,31.3098 20.0886,32.4698 C22.1186,33.6418 23.1726,33.5778 23.5846,32.8628 C23.9976,32.1478 23.5266,31.2038 21.4966,30.0318 M19.4826,33.5188 C17.0556,32.1168 16.3856,30.5488 17.1826,29.1668 C17.9756,27.7948 19.6826,27.5878 22.1016,28.9838 C24.5416,30.3918 25.2436,31.9918 24.4516,33.3628 C23.6536,34.7458 21.9226,34.9278 19.4826,33.5188" id="Fill-90" fill="#FEFEFE"></path>
                    <path d="M10.3345,57.4546 L10.3345,56.1786 L13.6125,55.3756 C14.1955,55.2546 14.7575,55.1546 15.3295,55.0456 L15.3295,55.0016 C14.7575,54.8686 14.1855,54.7476 13.6125,54.6046 L10.3345,53.7586 L10.3345,52.5806 L13.6125,51.7116 C14.1955,51.5686 14.7575,51.4476 15.3295,51.3046 L15.3295,51.2606 C14.7575,51.1396 14.1955,51.0406 13.6125,50.9086 L10.3345,50.1276 L10.3345,48.9386 L16.3855,50.5016 L16.3855,52.0196 L13.3935,52.7896 C12.8205,52.9336 12.2715,53.0426 11.6445,53.1746 L11.6445,53.2296 C12.2715,53.3506 12.8315,53.4606 13.4035,53.6146 L16.3855,54.3516 L16.3855,55.8146 L10.3345,57.4546 Z" id="Fill-91" fill="#FEFEFE"></path>
                    <path d="M25.4673,76.1636 C22.4453,75.1536 20.4663,74.8726 19.3133,75.5386 C18.5513,75.9776 18.2633,76.6906 18.7143,77.4726 C19.0333,78.0246 19.6503,78.2776 20.2933,78.4016 L20.0403,79.3736 C19.0463,79.1466 18.2883,78.7596 17.7613,77.8446 C17.0193,76.5586 17.3783,75.2456 18.6443,74.5136 C19.9973,73.7316 22.0203,74.0006 24.2983,74.6676 C24.0513,74.3276 23.7693,73.9056 23.5713,73.5616 L22.5593,71.8096 L23.4923,71.2696 L26.1053,75.7956 L25.4673,76.1636 Z" id="Fill-92" fill="#FEFEFE"></path>
                    <path d="M18.6196,69.1441 L16.7806,70.2051 C16.3996,70.4251 15.7866,70.7281 15.3946,70.9291 L15.4176,70.9681 C15.8686,70.9351 16.3406,70.9171 16.8176,70.9081 L19.7306,71.0681 L18.6196,69.1441 Z M18.3556,66.7301 L18.8726,67.6261 L20.7596,66.5371 L21.3526,67.5651 L19.4666,68.6541 L21.2166,71.6851 L20.4826,72.1081 L14.4796,71.8521 L13.7476,70.5851 L18.0256,68.1151 L17.5096,67.2201 L18.3556,66.7301 Z" id="Fill-93" fill="#FEFEFE"></path>
                    <path d="M40.5444,86.814 C37.4214,87.45 35.5674,88.196 34.9014,89.349 C34.4624,90.111 34.5684,90.872 35.3514,91.323 C35.9034,91.642 36.5644,91.552 37.1834,91.339 L37.4504,92.306 C36.4764,92.607 35.6264,92.65 34.7104,92.122 C33.4254,91.379 33.0794,90.062 33.8114,88.795 C34.5924,87.443 36.4784,86.664 38.7844,86.101 C38.3994,85.931 37.9444,85.707 37.6024,85.508 L35.8494,84.496 L36.3884,83.562 L40.9134,86.175 L40.5444,86.814 Z" id="Fill-94" fill="#FEFEFE"></path>
                    <path d="M34.562,83.7144 L33.027,82.8284 L30.21,87.7064 L31.468,88.4334 L31.066,89.1284 C30.338,88.8724 29.777,88.7664 29.235,88.7814 L28.406,88.3034 L31.932,82.1964 L30.56,81.4034 L31.083,80.4994 L35.083,82.8104 L34.562,83.7144 Z" id="Fill-95" fill="#FEFEFE"></path>
                    <path d="M56.0659,89.0669 L55.3179,89.9469 C54.7349,89.3639 53.9429,88.9899 53.1619,88.9899 C52.1819,88.9899 51.6319,89.4529 51.6319,90.1339 C51.6319,90.8719 52.1819,91.1019 52.9299,91.4319 L54.0519,91.9169 C54.8339,92.2469 55.7029,92.8629 55.7029,94.0399 C55.7029,95.3159 54.5809,96.2729 53.0409,96.2729 C52.0939,96.2729 51.2039,95.8779 50.5869,95.2509 L51.2579,94.4359 C51.7639,94.8869 52.3259,95.1619 53.0409,95.1619 C53.8659,95.1619 54.4049,94.7659 54.4049,94.1169 C54.4049,93.4229 53.7549,93.1599 53.0949,92.8959 L51.9839,92.4219 C51.0269,92.0149 50.3349,91.4209 50.3349,90.2329 C50.3349,88.9349 51.4129,87.8799 53.1829,87.8799 C54.2949,87.8799 55.3289,88.3189 56.0659,89.0669" id="Fill-96" fill="#FEFEFE"></path>
                    <path d="M75.8277,81.064 L74.2937,81.95 L77.1097,86.828 L78.3677,86.101 L78.7687,86.798 C78.1827,87.3 77.8097,87.732 77.5537,88.21 L76.7237,88.689 L73.1987,82.582 L71.8267,83.375 L71.3047,82.469 L75.3057,80.16 L75.8277,81.064 Z" id="Fill-97" fill="#FEFEFE"></path>
                    <path d="M70.9058,83.7788 L70.7948,84.7968 C70.1628,84.6268 69.4548,84.5658 68.7208,84.9898 C67.9288,85.4468 67.6538,86.3548 68.1928,87.2888 C68.7318,88.2218 69.5738,88.4468 70.3748,87.9858 C70.8218,87.7268 71.0108,87.4388 71.2668,86.9368 L72.0048,86.9808 L73.7148,90.4268 L70.1608,92.4778 L69.6278,91.5548 L72.2288,90.0528 L71.3508,88.1598 C71.1438,88.4818 70.9128,88.7418 70.5308,88.9628 C69.3588,89.6378 67.9958,89.4988 67.1098,87.9648 C66.2138,86.4118 66.8418,84.8808 68.0708,84.1718 C69.1768,83.5328 70.1298,83.5798 70.9058,83.7788" id="Fill-98" fill="#FEFEFE"></path>
                    <path d="M86.2212,66.6499 L85.3352,68.1839 L90.2132,71.0009 L90.9392,69.7429 L91.6362,70.1439 C91.3802,70.8729 91.2732,71.4329 91.2882,71.9759 L90.8102,72.8049 L84.7022,69.2789 L83.9112,70.6509 L83.0062,70.1289 L85.3162,66.1279 L86.2212,66.6499 Z" id="Fill-99" fill="#FEFEFE"></path>
                    <path d="M83.0503,71.5249 C83.6873,74.6479 84.4333,76.5029 85.5853,77.1679 C86.3473,77.6079 87.1093,77.5019 87.5603,76.7199 C87.8783,76.1679 87.7903,75.5069 87.5753,74.8859 L88.5433,74.6209 C88.8443,75.5939 88.8873,76.4449 88.3593,77.3589 C87.6163,78.6449 86.2993,78.9909 85.0323,78.2589 C83.6793,77.4779 82.9003,75.5929 82.3393,73.2869 C82.1673,73.6709 81.9443,74.1249 81.7453,74.4679 L80.7343,76.2219 L79.8003,75.6829 L82.4123,71.1569 L83.0503,71.5249 Z" id="Fill-100" fill="#FEFEFE"></path>
                    <polygon id="Fill-101" fill="#FEFEFE" points="96.2066 50.7417 96.2066 55.5267 95.1406 55.5267 95.1406 52.0177 92.8846 52.0177 92.8846 54.9877 91.8066 54.9877 91.8066 52.0177 89.1876 52.0177 89.1876 55.6477 88.1096 55.6477 88.1096 50.7417"></polygon>
                    <path d="M85.9517,35.6226 C86.8567,35.1016 87.1307,34.4076 86.6957,33.6556 C86.4597,33.2456 85.9657,32.8956 85.1227,32.8236 C83.7977,33.7416 83.4307,34.6246 83.8667,35.3786 C84.2187,35.9876 85.0467,36.1456 85.9517,35.6226 L85.9517,35.6226 Z M89.6807,33.8766 C89.8377,33.4426 89.8087,32.8886 89.5727,32.4776 C89.0557,31.5836 87.9497,31.2296 85.9227,32.3376 C86.6637,32.4546 87.3197,32.8886 87.6107,33.3936 C88.2937,34.5756 88.0257,35.7846 86.5407,36.6426 C85.1487,37.4446 83.6937,37.0156 83.0347,35.8726 C82.2637,34.5366 82.7517,32.8086 85.1327,31.4336 C87.8297,29.8766 89.6377,30.5206 90.4347,31.9036 C90.8867,32.6846 90.8827,33.4486 90.6947,34.0916 L89.6807,33.8766 Z" id="Fill-102" fill="#FEFEFE"></path>
                    <path d="M68.2896,21.4507 L69.2296,21.0547 C69.3976,21.7107 69.7186,22.3647 70.4426,22.7827 C71.2336,23.2397 72.0306,23.1147 72.4486,22.3897 C72.8996,21.6087 72.6946,20.8177 71.1136,19.9037 L71.5816,19.0957 C72.9626,19.8917 73.7226,19.6327 74.1296,18.9277 C74.4866,18.3077 74.3036,17.6807 73.6416,17.2867 C73.0936,16.9817 72.4806,16.9857 71.8546,17.1457 L71.6806,16.1287 C72.5186,15.9527 73.3706,15.9737 74.1796,16.4407 C75.4366,17.1677 75.9496,18.3277 75.2786,19.4897 C74.8106,20.3007 74.0196,20.5917 73.1166,20.4387 L73.0896,20.4877 C73.7846,21.1537 74.0696,22.1327 73.5256,23.0757 C72.7946,24.3437 71.3076,24.4757 70.0206,23.7317 C68.9156,23.0957 68.4546,22.2437 68.2896,21.4507" id="Fill-103" fill="#FEFEFE"></path>
                </g>
                <path d="M60,0 C93.136417,0 120,26.863583 120,60.0004998 C120,93.1374166 93.136417,120 60,120 C26.8625615,120 0,93.1374166 0,60.0004998 C0,26.863583 26.8625615,0 60,0 Z M59.9994926,7 C30.7293137,7 7,30.7279047 7,60 C7,89.2711023 30.7293137,113 59.9994926,113 C89.2717011,113 113,89.2711023 113,60 C113,30.7279047 89.2717011,7 59.9994926,7 Z" id="形状结合" fill="#232323"></path>
                <path d="M113,60 C113,89.2711023 89.2717011,113 59.9994926,113 C30.7293137,113 7,89.2711023 7,60 C7,30.7279047 30.7293137,7 59.9994926,7 C89.2717011,7 113,30.7279047 113,60 Z" id="Stroke-3" stroke="#303030"></path>
            </g>
        </g>
    </g>
</svg>
